<svg width="34" height="34" viewBox="0 0 34 34" fill="none" xmlns="http://www.w3.org/2000/svg">
<path d="M16.0294 1.45285L12.0829 7.4882C11.9838 7.63972 11.9276 7.81533 11.9205 7.99627C11.9133 8.17722 11.9554 8.35671 12.0423 8.51559C12.1292 8.67447 12.2576 8.80677 12.4138 8.89838C12.57 8.98999 12.7482 9.03746 12.9292 9.03573L15.9291 9.00904L16.0626 24.0084L10.0628 24.0618L10.0261 19.937C10.9666 19.6852 11.7829 19.0991 12.3221 18.2885C12.8614 17.4779 13.0864 16.4984 12.9552 15.5338C12.8239 14.5691 12.3453 13.6854 11.6091 13.0483C10.8729 12.4112 9.92964 12.0646 8.9561 12.0732C7.98257 12.0819 7.04561 12.4453 6.32086 13.0954C5.59611 13.7454 5.13332 14.6375 5.01924 15.6044C4.90517 16.5712 5.14763 17.5465 5.70119 18.3474C6.25475 19.1483 7.0814 19.7198 8.02619 19.9548L8.06289 24.0796C8.0676 24.61 8.28284 25.1168 8.66123 25.4886C9.03963 25.8603 9.55019 26.0665 10.0806 26.0617L16.0804 26.0084L16.1337 32.0081C16.1361 32.2733 16.2437 32.5267 16.4329 32.7126C16.6221 32.8985 16.8774 33.0016 17.1426 32.9992C17.4078 32.9968 17.6612 32.8892 17.8471 32.7C18.0329 32.5108 18.136 32.2555 18.1337 31.9903L18.0803 25.9906L24.08 25.9372C24.6105 25.9325 25.1173 25.7172 25.489 25.3388C25.8607 24.9605 26.0669 24.4499 26.0622 23.9195L26.0266 19.9196L27.0265 19.9107C27.557 19.906 28.0638 19.6908 28.4355 19.3124C28.8072 18.934 29.0134 18.4234 29.0087 17.893L28.9731 13.8932C28.9684 13.3628 28.7531 12.856 28.3747 12.4842C27.9963 12.1125 27.4858 11.9063 26.9554 11.9111L22.9555 11.9466C22.4251 11.9514 21.9183 12.1666 21.5466 12.545C21.1749 12.9234 20.9687 13.4339 20.9734 13.9644L21.009 17.9642C21.0137 18.4946 21.2289 19.0014 21.6073 19.3731C21.9857 19.7449 22.4963 19.951 23.0267 19.9463L24.0267 19.9374L24.0623 23.9373L18.0625 23.9907L17.929 8.99125L20.9289 8.96456C21.11 8.96306 21.2873 8.91243 21.4418 8.81806C21.5964 8.72368 21.7224 8.58911 21.8064 8.42871C21.8905 8.26831 21.9294 8.0881 21.919 7.90732C21.9087 7.72653 21.8494 7.55195 21.7476 7.40221L17.6943 1.43804C17.6018 1.30169 17.4771 1.19031 17.3311 1.1138C17.1852 1.03729 17.0227 0.998019 16.8579 0.999485C16.6931 1.00095 16.5313 1.04311 16.3868 1.1222C16.2422 1.20129 16.1195 1.31488 16.0294 1.45285ZM6.99175 16.0888C6.98823 15.6933 7.10208 15.3056 7.31891 14.9747C7.53574 14.6439 7.8458 14.3848 8.2099 14.2302C8.57399 14.0755 8.97575 14.0324 9.36439 14.1061C9.75302 14.1798 10.1111 14.3671 10.3932 14.6443C10.6754 14.9215 10.8691 15.2762 10.9497 15.6634C11.0303 16.0507 10.9943 16.4532 10.8462 16.8199C10.698 17.1867 10.4445 17.5013 10.1176 17.724C9.79063 17.9467 9.40501 18.0674 9.00947 18.071C8.47905 18.0757 7.96849 17.8695 7.5901 17.4978C7.2117 17.1261 6.99647 16.6192 6.99175 16.0888ZM23.0089 17.9464L22.9733 13.9466L26.9732 13.911L27.0088 17.9108L23.0089 17.9464ZM19.0424 6.98126L14.7864 7.01913L16.8828 3.80285L19.0424 6.98126Z" fill="white"/>
</svg>
