<svg xmlns="http://www.w3.org/2000/svg" viewBox="0 0 24 24"><path fill="#5059C9" d="M20.625 8.127c-.844 0-1.538.7-1.538 1.538v4.233c0 .844.694 1.538 1.538 1.538s1.538-.694 1.538-1.538V9.665c0-.844-.7-1.538-1.538-1.538zM13.067 0C11.046 0 9.41 1.636 9.41 3.657s1.636 3.657 3.657 3.657 3.657-1.636 3.657-3.657S15.094 0 13.067 0zm7.558 6.853c-1.214 0-2.204.99-2.204 2.204v4.837c0 1.214.99 2.204 2.204 2.204s2.204-.99 2.204-2.204V9.057c0-1.214-.99-2.204-2.204-2.204zM7.308 8.127c-1.017 0-1.846.829-1.846 1.846v8.182H3.657C1.636 18.161 0 19.797 0 21.818v.335c0 1.017.829 1.846 1.846 1.846h14.769c1.017 0 1.846-.829 1.846-1.846v-4.616c0-3.383-2.756-6.139-6.139-6.139H9.16c0-1.017-.829-1.846-1.846-1.846z"/></svg>
