<svg xmlns="http://www.w3.org/2000/svg" viewBox="0 0 24 24"><path fill="#0078D4" d="M13.5 18.36c0 1.62 1.02 3 2.46 3.54-.63.27-1.32.42-2.04.42-2.91 0-5.28-2.37-5.28-5.28s2.37-5.28 5.28-5.28c.72 0 1.41.15 2.04.42-1.44.54-2.46 1.92-2.46 3.54v2.64zM24 7.92c0 1.62-1.02 3-2.46 3.54.63.27 1.02.9 1.02 1.62v4.8c0 .99-.81 1.8-1.8 1.8h-.84c-.99 0-1.8-.81-1.8-1.8v-4.8c0-.72.39-1.35 1.02-1.62-1.44-.54-2.46-1.92-2.46-3.54V5.28c0-.99.81-1.8 1.8-1.8h3.72c.99 0 1.8.81 1.8 1.8v2.64zm-9.84 9.12c0-1.08.42-2.07 1.11-2.82-.81-.69-1.86-1.11-3.03-1.11-2.58 0-4.68 2.1-4.68 4.68 0 .96.3 1.86.81 2.61-.51.21-1.08.33-1.65.33C3.51 20.73.97 18.19.97 15s2.55-5.73 5.73-5.73c.57 0 1.11.09 1.62.27-.51-.78-.81-1.71-.81-2.73 0-2.82 2.28-5.1 5.1-5.1 2.49 0 4.56 1.8 5.01 4.17.42-.09.84-.15 1.29-.15 3.18 0 5.76 2.58 5.76 5.76s-2.58 5.76-5.76 5.76c-.45 0-.87-.06-1.29-.15-.45 2.37-2.52 4.17-5.01 4.17-.57 0-1.11-.09-1.62-.27.51.78.81 1.71.81 2.73 0 2.82-2.28 5.1-5.1 5.1-2.49 0-4.56-1.8-5.01-4.17-.42.09-.84.15-1.29.15C2.58 23.37 0 20.79 0 17.61s2.58-5.76 5.76-5.76c.45 0 .87.06 1.29.15.45-2.37 2.52-4.17 5.01-4.17.57 0 1.11.09 1.62.27-.51-.78-.81-1.71-.81-2.73 0-.99.27-1.92.75-2.73C10.23.93 7.86 0 5.28 0 2.37 0 0 2.37 0 5.28s2.37 5.28 5.28 5.28c.72 0 1.41-.15 2.04-.42-1.44.54-2.46 1.92-2.46 3.54v2.64c0 1.62 1.02 3 2.46 3.54-.63.27-1.32.42-2.04.42-2.91 0-5.28-2.37-5.28-5.28s2.37-5.28 5.28-5.28c.72 0 1.41.15 2.04.42-1.44.54-2.46 1.92-2.46 3.54v2.64z"/></svg>
